<svg id="Layer_1" data-name="Layer 1" xmlns="http://www.w3.org/2000/svg" viewBox="0 0 55.12 13.93"><defs><style>.cls-1{fill:#f0c84e;}.cls-2{fill:#fff;}</style></defs><title>social icons</title><path class="cls-1" d="M33.7,508h1.74V505.4h-2c-2.47.09-3,1.48-3,2.94h0v1.29h-1.7v2.52h1.7v6.75h2.55v-6.75H35l.4-2.52H32.9v-.78a.82.82,0,0,1,.77-.88Z" transform="translate(-28.66 -505.4)"/><path class="cls-1" d="M53.77,519.3H48.15a3.93,3.93,0,0,1-3.94-3.94v-5.61a3.94,3.94,0,0,1,3.94-3.94h5.62a4,4,0,0,1,3.94,3.94v5.61A3.94,3.94,0,0,1,53.77,519.3ZM48.15,507a2.8,2.8,0,0,0-2.8,2.8v5.61a2.8,2.8,0,0,0,2.8,2.8h5.62a2.79,2.79,0,0,0,2.79-2.8v-5.61a2.79,2.79,0,0,0-2.79-2.8H48.15Z" transform="translate(-28.66 -505.4)"/><path class="cls-1" d="M51,516.22a3.67,3.67,0,1,1,3.66-3.67h0A3.67,3.67,0,0,1,51,516.22ZM51,510a2.52,2.52,0,1,0,2.51,2.52h0A2.53,2.53,0,0,0,51,510Z" transform="translate(-28.66 -505.4)"/><path class="cls-1" d="M55.15,508.89a.53.53,0,0,1-.52.53.53.53,0,1,1,0-1.05h0a.53.53,0,0,1,.53.51Z" transform="translate(-28.66 -505.4)"/><path class="cls-1" d="M83.37,507.93a2.43,2.43,0,0,0-1.7-1.7c-1.53-.42-7.56-.42-7.56-.42a58.18,58.18,0,0,0-7.54.4,2.45,2.45,0,0,0-1.7,1.7,27.53,27.53,0,0,0-.37,4.65,25.81,25.81,0,0,0,.39,4.64,2.43,2.43,0,0,0,1.7,1.7c1.54.42,7.56.42,7.56.42a59.66,59.66,0,0,0,7.54-.39,2.41,2.41,0,0,0,1.7-1.7,25.3,25.3,0,0,0,.4-4.64A24.29,24.29,0,0,0,83.37,507.93Z" transform="translate(-28.66 -505.4)"/><path class="cls-2" d="M72.65,515.48l5.06-2.92-5.06-2.9Z" transform="translate(-28.66 -505.4)"/></svg>