<svg id="Layer_1" data-name="Layer 1" xmlns="http://www.w3.org/2000/svg" viewBox="0 0 33.04 33.04"><defs><style>.cls-1{fill:#f0c84b;}</style></defs><title>cart</title><circle class="cls-1" cx="16.52" cy="16.52" r="16.52"/><path d="M293.88,424h10c.7,0,1.09.29,1.15.81a.92.92,0,0,1-.94,1.08c-.74,0-1.49,0-2.24,0H293c-1.09,0-1.52-.41-1.23-1.45.68-2.43.08-4.81-.08-7.2,0-.67-.15-1.33-.18-2a.59.59,0,0,0-.49-.64c-.54-.14-1.08-.32-1.61-.51a1,1,0,0,1-.68-1.18.91.91,0,0,1,1.13-.66,23.28,23.28,0,0,1,2.93.95c.25.1.42.55.51.88a7.22,7.22,0,0,1,.16,1.27l4.78.54c2.39.26,4.78.52,7.16.81.85.1,1.15.56,1,1.38l-.69,3.8c-.13.73-.38,1-1.13,1H295C294,422.92,294,422.92,293.88,424Z" transform="translate(-281.08 -404.25)"/><path d="M294.09,426.36a1.43,1.43,0,0,1,1.45,1.46,1.49,1.49,0,0,1-1.47,1.45,1.47,1.47,0,0,1-1.44-1.48A1.41,1.41,0,0,1,294.09,426.36Z" transform="translate(-281.08 -404.25)"/><path d="M303.82,427.8a1.44,1.44,0,0,1-1.43,1.47,1.48,1.48,0,0,1-1.47-1.46,1.45,1.45,0,0,1,1.46-1.45A1.38,1.38,0,0,1,303.82,427.8Z" transform="translate(-281.08 -404.25)"/></svg>