<svg id="Layer_1" data-name="Layer 1" xmlns="http://www.w3.org/2000/svg" viewBox="0 0 33.04 33.04"><defs><style>.cls-1{fill:#f0c84b;}</style></defs><title>donation</title><circle class="cls-1" cx="16.52" cy="16.52" r="16.52"/><path d="M229.82,429.27v-7.46h-1V417.5h3.65v0c-.21-.13-.43-.24-.63-.38a3.51,3.51,0,0,1-1.33-1.45,2.19,2.19,0,0,1,.3-2.22,1.47,1.47,0,0,1,1-.48,3.25,3.25,0,0,1,2.58,1,4.28,4.28,0,0,1,1.22,2.36c0,.2.1.38.15.57a1.09,1.09,0,0,0,.08.15c.13-.34.25-.69.39-1a7.7,7.7,0,0,1,1.61-2.34,5.16,5.16,0,0,1,1.49-1.09,2.58,2.58,0,0,1,1.83-.21,2,2,0,0,1,1.44,1.69,3.29,3.29,0,0,1-.46,2.15,4,4,0,0,1-1.1,1.21.76.76,0,0,0-.13.1h2.73v4.31h-1v7.46Zm11.76-7.82h-3.8v6.7h3.8ZM231,428.15h3.8v-6.7H231Zm5.87-10.73h0a12.84,12.84,0,0,0,2-.15,3.79,3.79,0,0,0,2-1,2.54,2.54,0,0,0,.84-2.07,1,1,0,0,0-1.16-1,2.47,2.47,0,0,0-1.17.45,6,6,0,0,0-1.76,1.91A6.75,6.75,0,0,0,236.83,417.42ZM230,420.59h4.78v-1.95H230Zm7.8-2v2h4.77v-2Zm-2.85-1.31c-.06-.2-.12-.36-.16-.53a6.1,6.1,0,0,0-.45-1.39,2.66,2.66,0,0,0-2.1-1.48.68.68,0,0,0-.82.5,1.14,1.14,0,0,0,.14,1,2.93,2.93,0,0,0,.94.88,8.41,8.41,0,0,0,1.64.76C234.38,417.17,234.65,417.23,234.93,417.32Z" transform="translate(-219.75 -404.25)"/></svg>