<svg id="Layer_1" data-name="Layer 1" xmlns="http://www.w3.org/2000/svg" viewBox="0 0 33.04 33.04"><defs><style>.cls-1{fill:#f0c84b;}.cls-2{fill:#231f20;}</style></defs><title>FAQ</title><circle class="cls-1" cx="16.52" cy="16.52" r="16.52"/><path class="cls-2" d="M257.8,424.93h-2.92c0-.42,0-.67,0-.77a5,5,0,0,1,.48-2.34,7.18,7.18,0,0,1,1.88-2.07,14.23,14.23,0,0,0,1.69-1.5,2,2,0,0,0,.42-1.24,2.07,2.07,0,0,0-.75-1.61,2.93,2.93,0,0,0-2-.68,3,3,0,0,0-2.05.71,3.71,3.71,0,0,0-1.14,2.13l-3-.37a4.88,4.88,0,0,1,1.75-3.49,6.22,6.22,0,0,1,4.26-1.43,6.44,6.44,0,0,1,4.43,1.45,4.42,4.42,0,0,1,1.64,3.38,3.72,3.72,0,0,1-.6,2,13.72,13.72,0,0,1-2.58,2.6,4.85,4.85,0,0,0-1.27,1.36A4.6,4.6,0,0,0,257.8,424.93Zm-2.92,4.34v-3.22h3.22v3.22Z" transform="translate(-239.92 -404.25)"/></svg>