<svg id="Layer_1" data-name="Layer 1" xmlns="http://www.w3.org/2000/svg" viewBox="0 0 33.04 33.04"><defs><style>.cls-1{fill:#f0c84b;}</style></defs><title>login</title><circle class="cls-1" cx="16.52" cy="16.52" r="16.52"/><path d="M339.83,431.29c-.38,0-.65,0-.92,0a11.14,11.14,0,0,1-6.77-2.19c-.39-.28-.74-.61-1.11-.91a.26.26,0,0,1-.07-.36,8.54,8.54,0,0,1,4.2-4.28,7.9,7.9,0,0,1,2.64-.75A8.38,8.38,0,0,1,344,424.6a8.65,8.65,0,0,1,2.57,3.27.28.28,0,0,1-.07.38,11.48,11.48,0,0,1-5.45,2.85c-.22,0-.45.08-.68.11Z" transform="translate(-322.25 -404.25)"/><path d="M338.79,412.47a4.5,4.5,0,1,1-4.51,4.47A4.48,4.48,0,0,1,338.79,412.47Z" transform="translate(-322.25 -404.25)"/></svg>