<svg id="Layer_1" data-name="Layer 1" xmlns="http://www.w3.org/2000/svg" viewBox="0 0 33.04 33.04"><defs><style>.cls-1{fill:#f0c84b;}.cls-2{fill:#231f20;}</style></defs><title>dollar</title><circle class="cls-1" cx="16.52" cy="16.52" r="16.52"/><path class="cls-2" d="M215.65,429.27v-1.68a6.42,6.42,0,0,1-2.06-.57,3.58,3.58,0,0,1-1.37-1.32,4.76,4.76,0,0,1-.67-2.23l1.7-.32a4.15,4.15,0,0,0,.7,2,2.46,2.46,0,0,0,1.7,1v-5.38a7,7,0,0,1-2.13-.81,3,3,0,0,1-1.24-1.25,4,4,0,0,1,.84-4.73,4.48,4.48,0,0,1,2.53-.92v-.8h1v.8a4.26,4.26,0,0,1,2.34.87,3.85,3.85,0,0,1,1.33,2.52l-1.75.27a2.92,2.92,0,0,0-.62-1.53,2.32,2.32,0,0,0-1.3-.7v4.87a14.8,14.8,0,0,1,1.69.5,4.18,4.18,0,0,1,1.28.84,3.39,3.39,0,0,1,.77,1.19,4,4,0,0,1,.27,1.48,4.06,4.06,0,0,1-4,4.19v1.7Zm0-14.79a2.55,2.55,0,0,0-1.55.79,2.2,2.2,0,0,0-.57,1.51,2.16,2.16,0,0,0,.49,1.45,3.34,3.34,0,0,0,1.63.93Zm1,11.68a2.5,2.5,0,0,0,1.63-.86,2.62,2.62,0,0,0,.64-1.81,2.31,2.31,0,0,0-.45-1.48,4,4,0,0,0-1.82-1Z" transform="translate(-199.58 -404.25)"/></svg>